<mxfile host="app.diagrams.net" modified="2023-04-03T12:24:29.060Z" agent="Mozilla/5.0 (Macintosh; Intel Mac OS X 10_15_7) AppleWebKit/537.36 (KHTML, like Gecko) Chrome/111.0.0.0 Safari/537.36" etag="H1OxJdXVHCfBGsF-WWDE" version="21.1.2" type="github">
  <diagram name="第 1 页" id="jkvh4A5DkbGee7e1IqiZ">
    <mxGraphModel dx="3428" dy="2017" grid="0" gridSize="10" guides="1" tooltips="1" connect="1" arrows="1" fold="1" page="1" pageScale="1" pageWidth="1700" pageHeight="1100" math="0" shadow="0">
      <root>
        <mxCell id="0" />
        <mxCell id="1" parent="0" />
        <mxCell id="M-rgaktpT5TFiBYmBd5q-44" value="CDP" style="rounded=0;whiteSpace=wrap;html=1;labelPosition=center;verticalLabelPosition=top;align=center;verticalAlign=bottom;fillColor=#99CCFF;" parent="1" vertex="1">
          <mxGeometry x="633" y="977" width="625" height="906" as="geometry" />
        </mxCell>
        <mxCell id="M-rgaktpT5TFiBYmBd5q-50" value="spark 计算引擎" style="rounded=1;whiteSpace=wrap;html=1;fillColor=#ffe6cc;strokeColor=#d79b00;" parent="1" vertex="1">
          <mxGeometry x="572" y="93" width="77" height="240" as="geometry" />
        </mxCell>
        <mxCell id="M-rgaktpT5TFiBYmBd5q-52" value="安全岛" style="rounded=0;whiteSpace=wrap;html=1;labelPosition=center;verticalLabelPosition=top;align=center;verticalAlign=bottom;fillColor=#99CCFF;" parent="1" vertex="1">
          <mxGeometry x="1043" y="82" width="540" height="405" as="geometry" />
        </mxCell>
        <mxCell id="M-rgaktpT5TFiBYmBd5q-53" value="" style="shape=flexArrow;endArrow=classic;html=1;rounded=0;" parent="1" edge="1">
          <mxGeometry width="50" height="50" relative="1" as="geometry">
            <mxPoint x="731" y="175" as="sourcePoint" />
            <mxPoint x="1018" y="175" as="targetPoint" />
          </mxGeometry>
        </mxCell>
        <mxCell id="M-rgaktpT5TFiBYmBd5q-54" value="出包（pid+md5）" style="text;html=1;strokeColor=none;fillColor=none;align=center;verticalAlign=middle;whiteSpace=wrap;rounded=0;fontStyle=1;fontSize=14;" parent="1" vertex="1">
          <mxGeometry x="806" y="130" width="143" height="28" as="geometry" />
        </mxCell>
        <mxCell id="M-rgaktpT5TFiBYmBd5q-56" value="pid与td大库匹配，拿到三方标签" style="ellipse;shape=cloud;whiteSpace=wrap;html=1;" parent="1" vertex="1">
          <mxGeometry x="1165" y="102.5" width="247" height="128.5" as="geometry" />
        </mxCell>
        <mxCell id="M-rgaktpT5TFiBYmBd5q-58" value="&lt;p style=&quot;border-color: var(--border-color); margin: 0px; line-height: 12px;&quot; align=&quot;center&quot;&gt;&lt;span style=&quot;color: rgb(25, 25, 25); font-family: &amp;quot;Microsoft YaHei&amp;quot;; font-size: 13pt; font-weight: 600; background-color: initial;&quot;&gt;1、A_done.csv&lt;/span&gt;&lt;br&gt;&lt;/p&gt;&lt;br style=&quot;border-color: var(--border-color);&quot;&gt;&lt;p style=&quot;border-color: var(--border-color); margin: 0px; line-height: 12px;&quot; align=&quot;center&quot;&gt;&lt;span style=&quot;border-color: var(--border-color); font-family: &amp;quot;Microsoft YaHei&amp;quot;; font-size: 13pt; font-weight: 600; color: rgb(25, 25, 25);&quot;&gt;&amp;nbsp; 2、A_report.csv&lt;/span&gt;&lt;/p&gt;" style="rounded=1;whiteSpace=wrap;html=1;" parent="1" vertex="1">
          <mxGeometry x="1191" y="280" width="201.5" height="90" as="geometry" />
        </mxCell>
        <mxCell id="M-rgaktpT5TFiBYmBd5q-59" value="" style="shape=flexArrow;endArrow=classic;html=1;rounded=0;" parent="1" target="M-rgaktpT5TFiBYmBd5q-58" edge="1">
          <mxGeometry width="50" height="50" relative="1" as="geometry">
            <mxPoint x="1292" y="225" as="sourcePoint" />
            <mxPoint x="1342" y="175" as="targetPoint" />
          </mxGeometry>
        </mxCell>
        <mxCell id="M-rgaktpT5TFiBYmBd5q-60" value="" style="shape=flexArrow;endArrow=classic;html=1;rounded=0;" parent="1" edge="1">
          <mxGeometry width="50" height="50" relative="1" as="geometry">
            <mxPoint x="1026" y="436" as="sourcePoint" />
            <mxPoint x="745" y="436" as="targetPoint" />
          </mxGeometry>
        </mxCell>
        <mxCell id="M-rgaktpT5TFiBYmBd5q-61" value="1、出包（pid+tag）" style="text;html=1;strokeColor=none;fillColor=none;align=center;verticalAlign=middle;whiteSpace=wrap;rounded=0;fontStyle=1;fontSize=14;" parent="1" vertex="1">
          <mxGeometry x="811" y="450" width="143" height="28" as="geometry" />
        </mxCell>
        <mxCell id="M-rgaktpT5TFiBYmBd5q-63" value="2、出报告" style="text;html=1;strokeColor=none;fillColor=none;align=center;verticalAlign=middle;whiteSpace=wrap;rounded=0;fontStyle=1;fontSize=14;" parent="1" vertex="1">
          <mxGeometry x="803" y="478" width="97" height="32" as="geometry" />
        </mxCell>
        <mxCell id="M-rgaktpT5TFiBYmBd5q-64" value="转换程序，数据加工，将tag打平" style="rounded=1;whiteSpace=wrap;html=1;fillColor=#dae8fc;strokeColor=#6c8ebf;" parent="1" vertex="1">
          <mxGeometry x="364" y="708" width="372" height="82" as="geometry" />
        </mxCell>
        <mxCell id="M-rgaktpT5TFiBYmBd5q-71" value="tag数据" style="rounded=0;whiteSpace=wrap;html=1;" parent="1" vertex="1">
          <mxGeometry x="252" y="699" width="60" height="65" as="geometry" />
        </mxCell>
        <mxCell id="M-rgaktpT5TFiBYmBd5q-72" value="三方标签的报告放入cdp提供下载" style="rounded=1;whiteSpace=wrap;html=1;fillColor=#dae8fc;strokeColor=#6c8ebf;" parent="1" vertex="1">
          <mxGeometry x="364" y="842" width="372" height="82" as="geometry" />
        </mxCell>
        <mxCell id="M-rgaktpT5TFiBYmBd5q-73" value="报告" style="rounded=0;whiteSpace=wrap;html=1;" parent="1" vertex="1">
          <mxGeometry x="238" y="845" width="60" height="65" as="geometry" />
        </mxCell>
        <mxCell id="M-rgaktpT5TFiBYmBd5q-75" value="回写" style="text;html=1;strokeColor=none;fillColor=none;align=center;verticalAlign=middle;whiteSpace=wrap;rounded=0;" parent="1" vertex="1">
          <mxGeometry x="500" y="633" width="60" height="30" as="geometry" />
        </mxCell>
        <mxCell id="-sx49MDDap_tLkrFsJoD-2" value="输入（cdp人群、分值）" style="rounded=0;whiteSpace=wrap;html=1;fillColor=#99CCFF;" vertex="1" parent="1">
          <mxGeometry x="-274" y="239" width="259" height="67.5" as="geometry" />
        </mxCell>
        <mxCell id="-sx49MDDap_tLkrFsJoD-4" value="" style="rounded=0;whiteSpace=wrap;html=1;fontSize=15;fontColor=#FFFFFF;fillColor=#66FFFF;labelBackgroundColor=#33FFFF;strokeColor=none;" vertex="1" parent="1">
          <mxGeometry x="8" y="-47" width="81" height="266" as="geometry" />
        </mxCell>
        <mxCell id="-sx49MDDap_tLkrFsJoD-5" value="&lt;font color=&quot;#000000&quot; style=&quot;font-size: 12px;&quot;&gt;数据存储&lt;/font&gt;" style="text;html=1;strokeColor=none;fillColor=none;align=center;verticalAlign=middle;whiteSpace=wrap;rounded=0;fontSize=12;fontColor=#FFFFFF;" vertex="1" parent="1">
          <mxGeometry x="20.5" y="-29" width="60" height="30" as="geometry" />
        </mxCell>
        <mxCell id="-sx49MDDap_tLkrFsJoD-6" value="HDFS" style="text;html=1;strokeColor=none;fillColor=none;align=center;verticalAlign=middle;whiteSpace=wrap;rounded=0;labelBackgroundColor=#33FFFF;fontSize=13;fontColor=#000000;" vertex="1" parent="1">
          <mxGeometry x="20.5" y="113" width="60" height="30" as="geometry" />
        </mxCell>
        <mxCell id="-sx49MDDap_tLkrFsJoD-7" value="&lt;span style=&quot;color: rgba(0, 0, 0, 0); font-family: monospace; font-size: 0px; text-align: start; background-color: rgb(251, 251, 251);&quot;&gt;%3CmxGraphModel%3E%3Croot%3E%3CmxCell%20id%3D%220%22%2F%3E%3CmxCell%20id%3D%221%22%20parent%3D%220%22%2F%3E%3CmxCell%20id%3D%222%22%20value%3D%22%26lt%3Bfont%20color%3D%26quot%3B%23000000%26quot%3B%20style%3D%26quot%3Bfont-size%3A%2013px%3B%26quot%3B%26gt%3B%E6%95%B0%E6%8D%AE%E5%AD%98%E5%82%A8%26lt%3B%2Ffont%26gt%3B%22%20style%3D%22text%3Bhtml%3D1%3BstrokeColor%3Dnone%3BfillColor%3Dnone%3Balign%3Dcenter%3BverticalAlign%3Dmiddle%3BwhiteSpace%3Dwrap%3Brounded%3D0%3BfontSize%3D13%3BfontColor%3D%23FFFFFF%3B%22%20vertex%3D%221%22%20parent%3D%221%22%3E%3CmxGeometry%20x%3D%22235%22%20y%3D%22165%22%20width%3D%2260%22%20height%3D%2230%22%20as%3D%22geometry%22%2F%3E%3C%2FmxCell%3E%3C%2Froot%3E%3C%2FmxGraphModel%3E&lt;/span&gt;" style="rounded=0;whiteSpace=wrap;html=1;fontSize=15;fontColor=#FFFFFF;fillColor=#66B2FF;labelBackgroundColor=#33FFFF;strokeColor=none;" vertex="1" parent="1">
          <mxGeometry x="104" y="-47" width="76" height="612" as="geometry" />
        </mxCell>
        <mxCell id="-sx49MDDap_tLkrFsJoD-8" value="&lt;font color=&quot;#000000&quot; style=&quot;font-size: 12px;&quot;&gt;计算引擎&lt;/font&gt;" style="text;html=1;strokeColor=none;fillColor=none;align=center;verticalAlign=middle;whiteSpace=wrap;rounded=0;fontSize=12;fontColor=#FFFFFF;" vertex="1" parent="1">
          <mxGeometry x="117" y="-27" width="60" height="30" as="geometry" />
        </mxCell>
        <mxCell id="-sx49MDDap_tLkrFsJoD-9" value="SparkSQL" style="text;html=1;strokeColor=none;fillColor=none;align=center;verticalAlign=middle;whiteSpace=wrap;rounded=0;labelBackgroundColor=none;fontSize=12;fontColor=#000000;" vertex="1" parent="1">
          <mxGeometry x="112" y="57" width="60" height="30" as="geometry" />
        </mxCell>
        <mxCell id="-sx49MDDap_tLkrFsJoD-10" value="&lt;font color=&quot;#000000&quot;&gt;SFTP&lt;/font&gt;" style="rounded=0;whiteSpace=wrap;html=1;fontSize=15;fontColor=#FFFFFF;fillColor=#66FFFF;labelBackgroundColor=#33FFFF;strokeColor=none;" vertex="1" parent="1">
          <mxGeometry x="10" y="239" width="79" height="324" as="geometry" />
        </mxCell>
      </root>
    </mxGraphModel>
  </diagram>
</mxfile>
